<svg version="1.2" xmlns="http://www.w3.org/2000/svg" viewBox="0 0 2000 2000" width="200" height="200">
	<defs>
		<linearGradient id="g1" x2="1" gradientUnits="userSpaceOnUse" gradientTransform="matrix(724.861,144.972,-171.03,855.15,477.613,1471.51)">
			<stop offset="0" stop-color="#ff652a"/>
			<stop offset="1" stop-color="#ff2746"/>
		</linearGradient>
		<linearGradient id="g2" x2="1" gradientUnits="userSpaceOnUse" gradientTransform="matrix(1576.527,529.145,-118.815,353.995,303.378,583.578)">
			<stop offset="0" stop-color="#49e2de"/>
			<stop offset="1" stop-color="#2aa3ff"/>
		</linearGradient>
	</defs>
	<style>
		.s0 { fill: url(#g1) } 
		.s1 { fill: #ffffff } 
		.s2 { fill: url(#g2) } 
	</style>
	<path id="&lt;Path&gt;" class="s0" d="m1250.68 882.37c-38.47-11.77-73 29.36-73 29.36 7.16-69.86-28.26-172.6-60.01-248.03-40-13.01-80.27-20.89-118.57-23.39-55.13-3.62-106.29 3.16-146.38 20.76-324.89 142.6-325.45 516.32-172.66 665.87 31.29 30.63 63.61 55.58 96.38 75.62 59.73 36.51 120.89 55.84 180.35 63.56 158.28-125.12 190.91-322.91 190.91-322.91 0 0 60.32 124.37 109.76 13.59 49.45-110.77 31.69-262.65-6.78-274.43z"/>
	<path id="&lt;Path&gt;" class="s1" d="m656.19 1062.79c0 0-35.13-117.44 43.81-225.34 78.93-107.89 191.53-117.25 191.53-117.25 0 0-91.19 61.15-153.72 146.64-62.54 85.48-81.62 195.95-81.62 195.95z"/>
	<path id="&lt;Path&gt;" class="s2" d="m1424.98 1076.83c-2.72 28.58-8.52 56.8-16.82 84.19 106.04 65.18 164.2 121.94 156.34 142.65-7.89 20.81-104.57 14.43-223.66-2.98-104.16-15.22-225.45-38.88-319.54-60.21-116.58-26.42-308.94-106.29-439.99-177.83-95.68-52.22-158.74-100.03-135.48-119.32 16.93-14.04 78.47-15.24 155.51-10.2 6.8-21.81 15.32-43.34 25.86-64.32-194.51-19.71-392.87-29.17-436.84 7.29-57.51 47.7 157.12 189.81 407.83 307.83 148.79 70.05 310.29 131.62 435.17 159.92 74.35 16.85 153.06 31.93 230.81 44.49 272.89 44.11 533.97 57.21 553.11 6.76 17.95-47.33-108.13-179.2-392.3-318.27z"/>
</svg>