<svg version="1.1" xmlns="http://www.w3.org/2000/svg" viewBox="0 0 347.8636577473776 479.32010735355766" width="347.8636577473776" height="479.32010735355766" class="excalidraw-svg"><!-- svg-source:excalidraw --><metadata></metadata><defs><style class="style-fonts">
      </style></defs><g stroke-linecap="round"><g transform="translate(173.37128411313415 381.4618038124772) rotate(0 0 -90.60637044672916)" fill-rule="evenodd"><path d="M0 0 C16.7 0, 83.49 18.3, 100.19 0 C116.89 -18.3, 105.06 -83.88, 100.19 -109.78 C95.32 -135.67, 86.86 -143.48, 70.99 -155.38 C55.12 -167.29, 28.75 -181.72, 4.98 -181.21 C-18.79 -180.71, -54.56 -165.08, -71.64 -152.35 C-88.73 -139.62, -92.79 -130.22, -97.55 -104.83 C-102.31 -79.44, -116.45 -17.47, -100.19 0 C-83.93 17.47, -16.7 0, 0 0" stroke="none" stroke-width="0" fill="#4c6ef5" fill-rule="evenodd"></path><path d="M0 0 C16.7 0, 83.49 18.3, 100.19 0 C116.89 -18.3, 105.06 -83.88, 100.19 -109.78 C95.32 -135.67, 86.86 -143.48, 70.99 -155.38 C55.12 -167.29, 28.75 -181.72, 4.98 -181.21 C-18.79 -180.71, -54.56 -165.08, -71.64 -152.35 C-88.73 -139.62, -92.79 -130.22, -97.55 -104.83 C-102.31 -79.44, -116.45 -17.47, -100.19 0 C-83.93 17.47, -16.7 0, 0 0 M0 0 C16.7 0, 83.49 18.3, 100.19 0 C116.89 -18.3, 105.06 -83.88, 100.19 -109.78 C95.32 -135.67, 86.86 -143.48, 70.99 -155.38 C55.12 -167.29, 28.75 -181.72, 4.98 -181.21 C-18.79 -180.71, -54.56 -165.08, -71.64 -152.35 C-88.73 -139.62, -92.79 -130.22, -97.55 -104.83 C-102.31 -79.44, -116.45 -17.47, -100.19 0 C-83.93 17.47, -16.7 0, 0 0" stroke="#000000" stroke-width="1" fill="none"></path></g></g><mask></mask><g stroke-linecap="round" transform="translate(38.161987034706726 276.43304901682086) rotate(0 134.60920896249013 89.73947264166009)"><path d="M44.87 0 C102.05 0, 159.23 0, 224.35 0 C254.26 0, 269.22 14.96, 269.22 44.87 C269.22 80.76, 269.22 116.65, 269.22 134.61 C269.22 164.52, 254.26 179.48, 224.35 179.48 C172.36 179.48, 120.37 179.48, 44.87 179.48 C14.96 179.48, 0 164.52, 0 134.61 C0 102, 0 69.4, 0 44.87 C0 14.96, 14.96 0, 44.87 0" stroke="none" stroke-width="0" fill="#ced4da"></path><path d="M44.87 0 C87.27 0, 129.68 0, 224.35 0 M44.87 0 C91.24 0, 137.61 0, 224.35 0 M224.35 0 C254.26 0, 269.22 14.96, 269.22 44.87 M224.35 0 C254.26 0, 269.22 14.96, 269.22 44.87 M269.22 44.87 C269.22 62.87, 269.22 80.87, 269.22 134.61 M269.22 44.87 C269.22 66.89, 269.22 88.91, 269.22 134.61 M269.22 134.61 C269.22 164.52, 254.26 179.48, 224.35 179.48 M269.22 134.61 C269.22 164.52, 254.26 179.48, 224.35 179.48 M224.35 179.48 C161.76 179.48, 99.18 179.48, 44.87 179.48 M224.35 179.48 C180.52 179.48, 136.7 179.48, 44.87 179.48 M44.87 179.48 C14.96 179.48, 0 164.52, 0 134.61 M44.87 179.48 C14.96 179.48, 0 164.52, 0 134.61 M0 134.61 C0 108.82, 0 83.03, 0 44.87 M0 134.61 C0 109.62, 0 84.63, 0 44.87 M0 44.87 C0 14.96, 14.96 0, 44.87 0 M0 44.87 C0 14.96, 14.96 0, 44.87 0" stroke="#000000" stroke-width="1" fill="none"></path></g><g stroke-linecap="round" transform="translate(157.82579996833783 351.2271256296209) rotate(0 14.945396028860387 14.945396028860443)"><path d="M29.89 14.95 C29.89 15.81, 29.81 16.69, 29.66 17.54 C29.51 18.39, 29.29 19.24, 28.99 20.06 C28.69 20.87, 28.32 21.67, 27.89 22.42 C27.46 23.17, 26.95 23.89, 26.39 24.55 C25.84 25.21, 25.21 25.84, 24.55 26.39 C23.89 26.95, 23.17 27.46, 22.42 27.89 C21.67 28.32, 20.87 28.69, 20.06 28.99 C19.24 29.29, 18.39 29.51, 17.54 29.66 C16.69 29.81, 15.81 29.89, 14.95 29.89 C14.08 29.89, 13.2 29.81, 12.35 29.66 C11.5 29.51, 10.65 29.29, 9.83 28.99 C9.02 28.69, 8.22 28.32, 7.47 27.89 C6.72 27.46, 6 26.95, 5.34 26.39 C4.68 25.84, 4.05 25.21, 3.5 24.55 C2.94 23.89, 2.43 23.17, 2 22.42 C1.57 21.67, 1.2 20.87, 0.9 20.06 C0.61 19.24, 0.38 18.39, 0.23 17.54 C0.08 16.69, 0 15.81, 0 14.95 C0 14.08, 0.08 13.2, 0.23 12.35 C0.38 11.5, 0.61 10.65, 0.9 9.83 C1.2 9.02, 1.57 8.22, 2 7.47 C2.43 6.72, 2.94 6, 3.5 5.34 C4.05 4.68, 4.68 4.05, 5.34 3.5 C6 2.94, 6.72 2.43, 7.47 2 C8.22 1.57, 9.02 1.2, 9.83 0.9 C10.65 0.61, 11.5 0.38, 12.35 0.23 C13.2 0.08, 14.08 0, 14.95 0 C15.81 0, 16.69 0.08, 17.54 0.23 C18.39 0.38, 19.24 0.61, 20.06 0.9 C20.87 1.2, 21.67 1.57, 22.42 2 C23.17 2.43, 23.89 2.94, 24.55 3.5 C25.21 4.05, 25.84 4.68, 26.39 5.34 C26.95 6, 27.46 6.72, 27.89 7.47 C28.32 8.22, 28.69 9.02, 28.99 9.83 C29.29 10.65, 29.51 11.5, 29.66 12.35 C29.81 13.2, 29.85 14.51, 29.89 14.95 C29.93 15.38, 29.93 14.51, 29.89 14.95" stroke="none" stroke-width="0" fill="#ffffff"></path><path d="M29.89 14.95 C29.89 15.81, 29.81 16.69, 29.66 17.54 C29.51 18.39, 29.29 19.24, 28.99 20.06 C28.69 20.87, 28.32 21.67, 27.89 22.42 C27.46 23.17, 26.95 23.89, 26.39 24.55 C25.84 25.21, 25.21 25.84, 24.55 26.39 C23.89 26.95, 23.17 27.46, 22.42 27.89 C21.67 28.32, 20.87 28.69, 20.06 28.99 C19.24 29.29, 18.39 29.51, 17.54 29.66 C16.69 29.81, 15.81 29.89, 14.95 29.89 C14.08 29.89, 13.2 29.81, 12.35 29.66 C11.5 29.51, 10.65 29.29, 9.83 28.99 C9.02 28.69, 8.22 28.32, 7.47 27.89 C6.72 27.46, 6 26.95, 5.34 26.39 C4.68 25.84, 4.05 25.21, 3.5 24.55 C2.94 23.89, 2.43 23.17, 2 22.42 C1.57 21.67, 1.2 20.87, 0.9 20.06 C0.61 19.24, 0.38 18.39, 0.23 17.54 C0.08 16.69, 0 15.81, 0 14.95 C0 14.08, 0.08 13.2, 0.23 12.35 C0.38 11.5, 0.61 10.65, 0.9 9.83 C1.2 9.02, 1.57 8.22, 2 7.47 C2.43 6.72, 2.94 6, 3.5 5.34 C4.05 4.68, 4.68 4.05, 5.34 3.5 C6 2.94, 6.72 2.43, 7.47 2 C8.22 1.57, 9.02 1.2, 9.83 0.9 C10.65 0.61, 11.5 0.38, 12.35 0.23 C13.2 0.08, 14.08 0, 14.95 0 C15.81 0, 16.69 0.08, 17.54 0.23 C18.39 0.38, 19.24 0.61, 20.06 0.9 C20.87 1.2, 21.67 1.57, 22.42 2 C23.17 2.43, 23.89 2.94, 24.55 3.5 C25.21 4.05, 25.84 4.68, 26.39 5.34 C26.95 6, 27.46 6.72, 27.89 7.47 C28.32 8.22, 28.69 9.02, 28.99 9.83 C29.29 10.65, 29.51 11.5, 29.66 12.35 C29.81 13.2, 29.85 14.51, 29.89 14.95 C29.93 15.38, 29.93 14.51, 29.89 14.95" stroke="#000000" stroke-width="1" fill="none"></path></g><g stroke-linecap="round"><g transform="translate(37.25147728844149 440.88524720161263) rotate(0 134.77789754577202 10.404897054924106)" fill-rule="evenodd"><path d="M0 0 C-3.05 1.18, -19.31 3.92, -18.28 7.06 C-17.25 10.2, -40.72 16.01, 6.19 18.85 C53.1 21.69, 216.26 25.6, 263.2 24.11 C310.14 22.61, 286.95 14.45, 287.83 9.89 C288.72 5.32, 316.47 -1.65, 268.49 -3.3 C220.52 -4.94, 44.75 -0.55, 0 0" stroke="none" stroke-width="0" fill="#ced4da" fill-rule="evenodd"></path><path d="M0 0 C-3.05 1.18, -19.31 3.92, -18.28 7.06 C-17.25 10.2, -40.72 16.01, 6.19 18.85 C53.1 21.69, 216.26 25.6, 263.2 24.11 C310.14 22.61, 286.95 14.45, 287.83 9.89 C288.72 5.32, 316.47 -1.65, 268.49 -3.3 C220.52 -4.94, 44.75 -0.55, 0 0 M0 0 C-3.05 1.18, -19.31 3.92, -18.28 7.06 C-17.25 10.2, -40.72 16.01, 6.19 18.85 C53.1 21.69, 216.26 25.6, 263.2 24.11 C310.14 22.61, 286.95 14.45, 287.83 9.89 C288.72 5.32, 316.47 -1.65, 268.49 -3.3 C220.52 -4.94, 44.75 -0.55, 0 0" stroke="#000000" stroke-width="1" fill="none"></path></g></g><mask></mask><g stroke-linecap="round" transform="translate(84.63672463372632 35.632550685173555) rotate(0 89.73947264166009 89.73947264166009)"><path d="M179.48 89.74 C179.48 92.67, 179.33 95.62, 179.05 98.54 C178.76 101.45, 178.33 104.37, 177.75 107.25 C177.18 110.12, 176.47 112.98, 175.61 115.79 C174.76 118.6, 173.77 121.37, 172.65 124.08 C171.53 126.79, 170.26 129.46, 168.88 132.04 C167.5 134.63, 165.98 137.16, 164.36 139.6 C162.73 142.03, 160.97 144.4, 159.11 146.67 C157.25 148.94, 155.27 151.12, 153.19 153.19 C151.12 155.27, 148.94 157.25, 146.67 159.11 C144.4 160.97, 142.03 162.73, 139.6 164.36 C137.16 165.98, 134.63 167.5, 132.04 168.88 C129.46 170.26, 126.79 171.53, 124.08 172.65 C121.37 173.77, 118.6 174.76, 115.79 175.61 C112.98 176.47, 110.12 177.18, 107.25 177.75 C104.37 178.33, 101.45 178.76, 98.54 179.05 C95.62 179.33, 92.67 179.48, 89.74 179.48 C86.81 179.48, 83.86 179.33, 80.94 179.05 C78.03 178.76, 75.11 178.33, 72.23 177.75 C69.36 177.18, 66.5 176.47, 63.69 175.61 C60.88 174.76, 58.11 173.77, 55.4 172.65 C52.69 171.53, 50.02 170.26, 47.44 168.88 C44.85 167.5, 42.32 165.98, 39.88 164.36 C37.45 162.73, 35.08 160.97, 32.81 159.11 C30.54 157.25, 28.36 155.27, 26.28 153.19 C24.21 151.12, 22.23 148.94, 20.37 146.67 C18.51 144.4, 16.75 142.03, 15.12 139.6 C13.49 137.16, 11.98 134.63, 10.6 132.04 C9.21 129.46, 7.95 126.79, 6.83 124.08 C5.71 121.37, 4.72 118.6, 3.86 115.79 C3.01 112.98, 2.3 110.12, 1.72 107.25 C1.15 104.37, 0.72 101.45, 0.43 98.54 C0.14 95.62, 0 92.67, 0 89.74 C0 86.81, 0.14 83.86, 0.43 80.94 C0.72 78.03, 1.15 75.11, 1.72 72.23 C2.3 69.36, 3.01 66.5, 3.86 63.69 C4.72 60.88, 5.71 58.11, 6.83 55.4 C7.95 52.69, 9.21 50.02, 10.6 47.44 C11.98 44.85, 13.49 42.32, 15.12 39.88 C16.75 37.45, 18.51 35.08, 20.37 32.81 C22.23 30.54, 24.21 28.36, 26.28 26.28 C28.36 24.21, 30.54 22.23, 32.81 20.37 C35.08 18.51, 37.45 16.75, 39.88 15.12 C42.32 13.49, 44.85 11.98, 47.44 10.6 C50.02 9.21, 52.69 7.95, 55.4 6.83 C58.11 5.71, 60.88 4.72, 63.69 3.86 C66.5 3.01, 69.36 2.3, 72.23 1.72 C75.11 1.15, 78.03 0.72, 80.94 0.43 C83.86 0.14, 86.81 0, 89.74 0 C92.67 0, 95.62 0.14, 98.54 0.43 C101.45 0.72, 104.37 1.15, 107.25 1.72 C110.12 2.3, 112.98 3.01, 115.79 3.86 C118.6 4.72, 121.37 5.71, 124.08 6.83 C126.79 7.95, 129.46 9.21, 132.04 10.6 C134.63 11.98, 137.16 13.49, 139.6 15.12 C142.03 16.75, 144.4 18.51, 146.67 20.37 C148.94 22.23, 151.12 24.21, 153.19 26.28 C155.27 28.36, 157.25 30.54, 159.11 32.81 C160.97 35.08, 162.73 37.45, 164.36 39.88 C165.98 42.32, 167.5 44.85, 168.88 47.44 C170.26 50.02, 171.53 52.69, 172.65 55.4 C173.77 58.11, 174.76 60.88, 175.61 63.69 C176.47 66.5, 177.18 69.36, 177.75 72.23 C178.33 75.11, 178.76 78.03, 179.05 80.94 C179.33 83.86, 179.41 88.27, 179.48 89.74 C179.55 91.21, 179.55 88.27, 179.48 89.74" stroke="none" stroke-width="0" fill="#ffffff"></path><path d="M179.48 89.74 C179.48 92.67, 179.33 95.62, 179.05 98.54 C178.76 101.45, 178.33 104.37, 177.75 107.25 C177.18 110.12, 176.47 112.98, 175.61 115.79 C174.76 118.6, 173.77 121.37, 172.65 124.08 C171.53 126.79, 170.26 129.46, 168.88 132.04 C167.5 134.63, 165.98 137.16, 164.36 139.6 C162.73 142.03, 160.97 144.4, 159.11 146.67 C157.25 148.94, 155.27 151.12, 153.19 153.19 C151.12 155.27, 148.94 157.25, 146.67 159.11 C144.4 160.97, 142.03 162.73, 139.6 164.36 C137.16 165.98, 134.63 167.5, 132.04 168.88 C129.46 170.26, 126.79 171.53, 124.08 172.65 C121.37 173.77, 118.6 174.76, 115.79 175.61 C112.98 176.47, 110.12 177.18, 107.25 177.75 C104.37 178.33, 101.45 178.76, 98.54 179.05 C95.62 179.33, 92.67 179.48, 89.74 179.48 C86.81 179.48, 83.86 179.33, 80.94 179.05 C78.03 178.76, 75.11 178.33, 72.23 177.75 C69.36 177.18, 66.5 176.47, 63.69 175.61 C60.88 174.76, 58.11 173.77, 55.4 172.65 C52.69 171.53, 50.02 170.26, 47.44 168.88 C44.85 167.5, 42.32 165.98, 39.88 164.36 C37.45 162.73, 35.08 160.97, 32.81 159.11 C30.54 157.25, 28.36 155.27, 26.28 153.19 C24.21 151.12, 22.23 148.94, 20.37 146.67 C18.51 144.4, 16.75 142.03, 15.12 139.6 C13.49 137.16, 11.98 134.63, 10.6 132.04 C9.21 129.46, 7.95 126.79, 6.83 124.08 C5.71 121.37, 4.72 118.6, 3.86 115.79 C3.01 112.98, 2.3 110.12, 1.72 107.25 C1.15 104.37, 0.72 101.45, 0.43 98.54 C0.14 95.62, 0 92.67, 0 89.74 C0 86.81, 0.14 83.86, 0.43 80.94 C0.72 78.03, 1.15 75.11, 1.72 72.23 C2.3 69.36, 3.01 66.5, 3.86 63.69 C4.72 60.88, 5.71 58.11, 6.83 55.4 C7.95 52.69, 9.21 50.02, 10.6 47.44 C11.98 44.85, 13.49 42.32, 15.12 39.88 C16.75 37.45, 18.51 35.08, 20.37 32.81 C22.23 30.54, 24.21 28.36, 26.28 26.28 C28.36 24.21, 30.54 22.23, 32.81 20.37 C35.08 18.51, 37.45 16.75, 39.88 15.12 C42.32 13.49, 44.85 11.98, 47.44 10.6 C50.02 9.21, 52.69 7.95, 55.4 6.83 C58.11 5.71, 60.88 4.72, 63.69 3.86 C66.5 3.01, 69.36 2.3, 72.23 1.72 C75.11 1.15, 78.03 0.72, 80.94 0.43 C83.86 0.14, 86.81 0, 89.74 0 C92.67 0, 95.62 0.14, 98.54 0.43 C101.45 0.72, 104.37 1.15, 107.25 1.72 C110.12 2.3, 112.98 3.01, 115.79 3.86 C118.6 4.72, 121.37 5.71, 124.08 6.83 C126.79 7.95, 129.46 9.21, 132.04 10.6 C134.63 11.98, 137.16 13.49, 139.6 15.12 C142.03 16.75, 144.4 18.51, 146.67 20.37 C148.94 22.23, 151.12 24.21, 153.19 26.28 C155.27 28.36, 157.25 30.54, 159.11 32.81 C160.97 35.08, 162.73 37.45, 164.36 39.88 C165.98 42.32, 167.5 44.85, 168.88 47.44 C170.26 50.02, 171.53 52.69, 172.65 55.4 C173.77 58.11, 174.76 60.88, 175.61 63.69 C176.47 66.5, 177.18 69.36, 177.75 72.23 C178.33 75.11, 178.76 78.03, 179.05 80.94 C179.33 83.86, 179.41 88.27, 179.48 89.74 C179.55 91.21, 179.55 88.27, 179.48 89.74" stroke="#000000" stroke-width="1" fill="none"></path></g><g stroke-linecap="round"><g transform="translate(113.29182458695459 122.03432894229707) rotate(356.85899504108176 19.524929695674246 -12.551632522023453)"><path d="M0 0 C1.06 -2.56, 2.75 -11.2, 6.34 -15.39 C9.93 -19.57, 17.12 -24.9, 21.53 -25.1 C25.94 -25.31, 29.87 -20.28, 32.79 -16.6 C35.71 -12.93, 38.01 -5.33, 39.05 -3.07 M0 0 C1.06 -2.56, 2.75 -11.2, 6.34 -15.39 C9.93 -19.57, 17.12 -24.9, 21.53 -25.1 C25.94 -25.31, 29.87 -20.28, 32.79 -16.6 C35.71 -12.93, 38.01 -5.33, 39.05 -3.07" stroke="#000000" stroke-width="1" fill="none"></path></g></g><mask></mask><g stroke-linecap="round"><g transform="translate(189.27927307695154 122.70943267917642) rotate(356.85899504108176 19.524929695674246 -12.551632522023453)"><path d="M0 0 C1.06 -2.56, 2.75 -11.2, 6.34 -15.39 C9.93 -19.57, 17.12 -24.9, 21.53 -25.1 C25.94 -25.31, 29.87 -20.28, 32.79 -16.6 C35.71 -12.93, 38.01 -5.33, 39.05 -3.07 M0 0 C1.06 -2.56, 2.75 -11.2, 6.34 -15.39 C9.93 -19.57, 17.12 -24.9, 21.53 -25.1 C25.94 -25.31, 29.87 -20.28, 32.79 -16.6 C35.71 -12.93, 38.01 -5.33, 39.05 -3.07" stroke="#000000" stroke-width="1" fill="none"></path></g></g><mask></mask><g stroke-linecap="round"><g transform="translate(132.00906356940277 159.37907345850954) rotate(0 36.99540089994821 7.1221144021459395)"><path d="M0 0 C5.88 2.37, 22.92 13.53, 35.25 14.24 C47.59 14.96, 67.53 5.95, 73.99 4.29 M0 0 C5.88 2.37, 22.92 13.53, 35.25 14.24 C47.59 14.96, 67.53 5.95, 73.99 4.29" stroke="#000000" stroke-width="1" fill="none"></path></g></g><mask></mask><g stroke-linecap="round"><g transform="translate(170.93664863293588 28.47241156981022) rotate(0 -15.609314443545145 -7.23620578490511)"><path d="M0 0 C-5.2 -2.41, -26.02 -12.06, -31.22 -14.47 M0 0 C-5.2 -2.41, -26.02 -12.06, -31.22 -14.47" stroke="#000000" stroke-width="1" fill="none"></path></g></g><mask></mask><g stroke-linecap="round"><g transform="translate(177.17119999526722 26.466649367412856) rotate(0 27.55071713664597 -2.6734604989209174)"><path d="M0 0 C3.76 -0.86, 13.38 -4.24, 22.57 -5.13 C31.75 -6.03, 49.68 -5.31, 55.1 -5.35 M0 0 C3.76 -0.86, 13.38 -4.24, 22.57 -5.13 C31.75 -6.03, 49.68 -5.31, 55.1 -5.35" stroke="#000000" stroke-width="1" fill="none"></path></g></g><mask></mask><g stroke-linecap="round"><g transform="translate(165.96728790743418 31.906826468788722) rotate(0 -29.39718228118636 0.01151080996538667)"><path d="M0 0 C-5.74 -0.4, -24.66 -2.77, -34.46 -2.37 C-44.26 -1.97, -54.74 1.6, -58.79 2.39 M0 0 C-5.74 -0.4, -24.66 -2.77, -34.46 -2.37 C-44.26 -1.97, -54.74 1.6, -58.79 2.39" stroke="#000000" stroke-width="1" fill="none"></path></g></g><mask></mask><g stroke-linecap="round"><g transform="translate(158.93583905651485 340.9876089597534) rotate(0 14.253201251452765 9.002526843507098)" fill-rule="evenodd"><path d="M2.04 -26.05 C2.04 -26.05, 2.04 -26.05, 2.04 -26.05 M2.04 -26.05 C2.04 -26.05, 2.04 -26.05, 2.04 -26.05 M-0.19 -17.39 C2.81 -20.85, 5.82 -24.3, 11.62 -30.98 M-0.19 -17.39 C2.53 -20.52, 5.26 -23.66, 11.62 -30.98 M0.2 -11.75 C3.66 -15.72, 7.11 -19.69, 16.61 -30.62 M0.2 -11.75 C4.91 -17.16, 9.61 -22.57, 16.61 -30.62 M-0.06 -5.35 C7.47 -14.01, 14.99 -22.66, 20.28 -28.75 M-0.06 -5.35 C5.86 -12.16, 11.78 -18.97, 20.28 -28.75 M0.34 0.29 C0.99 -0.46, 1.65 -1.21, 2.96 -2.73 M0.34 0.29 C1.04 -0.52, 1.74 -1.33, 2.96 -2.73 M8.87 -9.52 C12.06 -13.19, 15.25 -16.86, 23.3 -26.12 M8.87 -9.52 C13.38 -14.71, 17.89 -19.9, 23.3 -26.12 M-10.42 18.77 C-7.51 15.42, -4.61 12.08, 0.73 5.94 M-10.42 18.77 C-7.75 15.69, -5.08 12.62, 0.73 5.94 M13.85 -9.16 C17.39 -13.23, 20.93 -17.3, 25.66 -22.74 M13.85 -9.16 C16.62 -12.35, 19.4 -15.54, 25.66 -22.74 M-16.59 31.96 C-10.96 25.48, -5.33 19, -1.5 14.6 M-16.59 31.96 C-12.01 26.69, -7.43 21.42, -1.5 14.6 M17.53 -7.29 C21.43 -11.78, 25.34 -16.27, 28.02 -19.36 M17.53 -7.29 C20.91 -11.18, 24.29 -15.06, 28.02 -19.36 M-13.57 34.58 C-11.26 31.92, -8.95 29.27, -7.66 27.79 M-13.57 34.58 C-11.88 32.64, -10.19 30.69, -7.66 27.79 M21.2 -5.42 C23.22 -7.75, 25.25 -10.07, 28.42 -13.72 M21.2 -5.42 C23.83 -8.44, 26.45 -11.45, 28.42 -13.72 M-9.24 35.7 C-8.72 35.1, -8.2 34.51, -7.93 34.19 M-9.24 35.7 C-8.79 35.18, -8.34 34.67, -7.93 34.19 M21.6 0.22 C24.06 -2.61, 26.52 -5.44, 28.81 -8.08 M21.6 0.22 C23.57 -2.05, 25.55 -4.33, 28.81 -8.08 M-6.87 39.07 C-6.43 38.57, -5.99 38.06, -5.56 37.56 M-6.87 39.07 C-6.43 38.56, -5.98 38.04, -5.56 37.56 M23.96 3.6 C25.78 1.51, 27.6 -0.58, 29.21 -2.43 M23.96 3.6 C25.5 1.83, 27.04 0.06, 29.21 -2.43 M-4.51 42.45 C-4.03 41.9, -3.54 41.34, -2.54 40.19 M-4.51 42.45 C-3.93 41.79, -3.35 41.12, -2.54 40.19 M25.67 7.74 C27.81 5.27, 29.96 2.8, 31.57 0.94 M25.67 7.74 C27.94 5.12, 30.21 2.51, 31.57 0.94 M-2.15 45.83 C-1.55 45.14, -0.94 44.45, 0.47 42.81 M-2.15 45.83 C-1.3 44.86, -0.45 43.88, 0.47 42.81 M26.72 12.62 C28.9 10.11, 31.09 7.6, 33.28 5.08 M26.72 12.62 C28.28 10.82, 29.85 9.02, 33.28 5.08 M-0.44 49.97 C0.6 48.77, 1.64 47.57, 3.49 45.44 M-0.44 49.97 C0.66 48.69, 1.77 47.42, 3.49 45.44 M29.08 16 C31.05 13.74, 33.01 11.48, 36.3 7.7 M29.08 16 C31.03 13.77, 32.97 11.53, 36.3 7.7 M30.79 20.14 C32.41 18.26, 34.04 16.39, 38.66 11.08 M30.79 20.14 C33.5 17.02, 36.21 13.89, 38.66 11.08 M31.84 25.03 C34.35 22.13, 36.87 19.24, 41.02 14.46 M31.84 25.03 C33.83 22.74, 35.82 20.45, 41.02 14.46 M32.23 30.67 C36.26 26.03, 40.3 21.39, 42.73 18.59 M32.23 30.67 C34.5 28.06, 36.77 25.45, 42.73 18.59 M32.63 36.31 C36.21 32.19, 39.79 28.07, 44.44 22.73 M32.63 36.31 C36.69 31.64, 40.76 26.96, 44.44 22.73 M33.68 41.2 C36.06 38.46, 38.44 35.73, 45.49 27.62 M33.68 41.2 C37.48 36.82, 41.29 32.44, 45.49 27.62 M38.01 42.32 C39.47 40.63, 40.94 38.94, 45.22 34.01 M38.01 42.32 C39.75 40.31, 41.5 38.3, 45.22 34.01 M-0.6 49.47 C-0.6 49.47, -0.6 49.47, -0.6 49.47 M-0.6 49.47 C-0.6 49.47, -0.6 49.47, -0.6 49.47 M2.78 47.11 C-0.07 44.63, -2.92 42.16, -7.03 38.58 M2.78 47.11 C0.58 45.19, -1.62 43.28, -7.03 38.58 M-13.07 33.33 C-14.12 32.42, -15.17 31.5, -16.09 30.7 M-13.07 33.33 C-14.19 32.35, -15.32 31.38, -16.09 30.7 M-8.18 32.28 C-10.33 30.41, -12.48 28.54, -14.22 27.03 M-8.18 32.28 C-10.18 30.54, -12.18 28.81, -14.22 27.03 M-7.07 27.95 C-8.45 26.75, -9.83 25.55, -12.35 23.35 M-7.07 27.95 C-9.15 26.14, -11.23 24.33, -12.35 23.35 M-6.71 22.96 C-7.72 22.08, -8.73 21.21, -10.48 19.68 M-6.71 22.96 C-7.94 21.89, -9.16 20.83, -10.48 19.68 M-4.84 19.29 C-6.57 17.78, -8.29 16.28, -9.37 15.35 M-4.84 19.29 C-5.78 18.46, -6.73 17.64, -9.37 15.35 M-2.97 15.61 C-4.63 14.17, -6.28 12.73, -7.5 11.67 M-2.97 15.61 C-4.32 14.44, -5.67 13.26, -7.5 11.67 M-1.85 11.28 C-2.72 10.52, -3.59 9.77, -4.87 8.66 M-1.85 11.28 C-2.66 10.58, -3.47 9.87, -4.87 8.66 M39.26 41.72 C37.03 39.78, 34.79 37.84, 30.96 34.5 M39.26 41.72 C37.08 39.82, 34.89 37.92, 30.96 34.5 M0.01 7.6 C-0.52 7.14, -1.05 6.68, -2.25 5.64 M0.01 7.6 C-0.77 6.92, -1.56 6.23, -2.25 5.64 M42.64 39.36 C39.81 36.9, 36.98 34.44, 32.07 30.17 M42.64 39.36 C38.84 36.05, 35.03 32.75, 32.07 30.17 M1.88 3.93 C1.09 3.24, 0.29 2.54, -0.38 1.96 M1.88 3.93 C1.09 3.24, 0.29 2.54, -0.38 1.96 M44.51 35.68 C40.28 32, 36.05 28.33, 31.68 24.53 M44.51 35.68 C41.26 32.86, 38.02 30.04, 31.68 24.53 M3 -0.4 C2.26 -1.04, 1.52 -1.68, -0.02 -3.03 M3 -0.4 C2.07 -1.21, 1.14 -2.01, -0.02 -3.03 M45.62 31.35 C41.15 27.47, 36.68 23.58, 30.53 18.23 M45.62 31.35 C40.62 27, 35.61 22.64, 30.53 18.23 M3.36 -5.39 C2.18 -6.41, 1.01 -7.43, 0.34 -8.01 M3.36 -5.39 C2.26 -6.34, 1.16 -7.3, 0.34 -8.01 M44.47 25.05 C39.12 20.4, 33.76 15.74, 25.61 8.65 M44.47 25.05 C38.61 19.95, 32.75 14.86, 25.61 8.65 M5.98 -8.41 C3.91 -10.21, 1.84 -12.01, -0.05 -13.66 M5.98 -8.41 C3.57 -10.51, 1.15 -12.61, -0.05 -13.66 M44.08 19.41 C37.84 13.99, 31.61 8.57, 22.19 0.38 M44.08 19.41 C39.06 15.04, 34.04 10.68, 22.19 0.38 M9.36 -10.77 C6.34 -13.39, 3.32 -16.02, 0.31 -18.64 M9.36 -10.77 C7.39 -12.48, 5.43 -14.19, 0.31 -18.64 M34.63 5.89 C22.48 -4.67, 10.32 -15.23, 1.42 -22.97 M34.63 5.89 C26.25 -1.39, 17.88 -8.66, 1.42 -22.97 M29.7 -3.69 C22.5 -9.95, 15.29 -16.22, 2.54 -27.3 M29.7 -3.69 C20.39 -11.78, 11.08 -19.88, 2.54 -27.3 M28.56 -9.99 C22.47 -15.28, 16.38 -20.57, 5.91 -29.67 M28.56 -9.99 C22.48 -15.27, 16.4 -20.55, 5.91 -29.67 M28.92 -14.97 C22.91 -20.19, 16.91 -25.41, 10.05 -31.37 M28.92 -14.97 C24.61 -18.72, 20.3 -22.47, 10.05 -31.37 M27.77 -21.27 C25.23 -23.48, 22.69 -25.68, 15.69 -31.77 M27.77 -21.27 C24.23 -24.34, 20.7 -27.42, 15.69 -31.77" stroke="#000" stroke-width="0.5" fill="none"></path><path d="M0 0 C-0.09 -2.32, -0.54 -10.45, -0.54 -13.92 C-0.54 -17.4, -0.39 -18.87, 0 -20.85 C0.39 -22.83, 1.08 -24.49, 1.82 -25.8 C2.55 -27.11, 3.3 -27.85, 4.41 -28.7 C5.52 -29.55, 6.97 -30.49, 8.47 -30.9 C9.97 -31.32, 11.75 -31.32, 13.42 -31.21 C15.1 -31.1, 17.04 -30.77, 18.53 -30.25 C20.01 -29.72, 21.25 -28.94, 22.32 -28.08 C23.38 -27.22, 24.1 -26.24, 24.91 -25.06 C25.72 -23.88, 26.59 -22.59, 27.15 -21 C27.72 -19.42, 28.12 -17.33, 28.31 -15.55 C28.51 -13.77, 28.26 -12.05, 28.31 -10.33 C28.36 -8.61, 28.36 -6.72, 28.62 -5.22 C28.88 -3.72, 29.12 -2.9, 29.86 -1.32 C30.6 0.27, 31.74 2.4, 33.07 4.29 C34.4 6.19, 36.51 8.35, 37.83 10.06 C39.14 11.76, 40.06 12.87, 40.96 14.5 C41.86 16.14, 42.53 17.8, 43.2 19.84 C43.88 21.89, 44.67 25.08, 45.02 26.77 C45.38 28.45, 45.33 28.72, 45.33 29.94 C45.33 31.16, 45.27 32.86, 45.02 34.08 C44.78 35.29, 44.4 36.24, 43.86 37.22 C43.32 38.19, 42.68 39.12, 41.77 39.93 C40.86 40.73, 39.41 41.67, 38.41 42.05 C37.41 42.43, 36.69 42.38, 35.78 42.21 C34.86 42.03, 33.51 41.75, 32.92 41.01 C32.32 40.27, 32.28 38.57, 32.22 37.76 C32.16 36.95, 32.78 36.44, 32.57 36.14 C32.35 35.83, 31.05 36.7, 30.94 35.94 C30.84 35.19, 31.78 33.14, 31.95 31.61 C32.12 30.08, 32.14 28.6, 31.95 26.78 C31.76 24.95, 31.38 22.58, 30.83 20.66 C30.27 18.75, 29.38 16.6, 28.62 15.29 C27.86 13.98, 26.72 13.7, 26.26 12.81 C25.81 11.92, 26.1 10.9, 25.88 9.95 C25.66 9, 25.48 8.31, 24.95 7.09 C24.42 5.87, 23.45 4.18, 22.7 2.64 C21.96 1.1, 20.8 -0.87, 20.5 -2.18 C20.2 -3.48, 21.08 -4.41, 20.89 -5.19 C20.69 -5.98, 20.25 -6.31, 19.34 -6.89 C18.43 -7.48, 16.54 -8.25, 15.43 -8.71 C14.32 -9.17, 13.76 -9.46, 12.69 -9.64 C11.62 -9.82, 10.28 -10.14, 9.01 -9.8 C7.75 -9.45, 6.28 -8.49, 5.11 -7.59 C3.93 -6.69, 2.41 -5.64, 1.97 -4.42 C1.53 -3.2, 2.37 -1.32, 2.48 -0.28 C2.58 0.76, 2.87 0.82, 2.59 1.85 C2.31 2.87, 1.55 4.54, 0.81 5.87 C0.08 7.2, -1.27 8.42, -1.82 9.81 C-2.37 11.21, -1.91 12.68, -2.48 14.22 C-3.04 15.76, -4.44 17.4, -5.22 19.06 C-6.01 20.72, -6.65 22.25, -7.19 24.16 C-7.74 26.08, -8.26 28.84, -8.47 30.54 C-8.68 32.23, -9.23 32.95, -8.47 34.33 C-7.71 35.71, -5.58 37.31, -3.91 38.81 C-2.24 40.32, 0.37 42.13, 1.55 43.34 C2.72 44.55, 3.02 45.24, 3.13 46.09 C3.25 46.94, 2.91 47.92, 2.24 48.45 C1.57 48.97, 0.2 50.13, -0.89 49.22 C-1.98 48.31, -3.22 44.77, -4.29 42.99 C-5.36 41.21, -6.39 39.74, -7.31 38.54 C-8.23 37.34, -8.96 36.56, -9.79 35.8 C-10.61 35.04, -11.48 34.22, -12.26 33.98 C-13.04 33.73, -13.99 34.11, -14.47 34.33 C-14.94 34.54, -14.73 35.66, -15.12 35.26 C-15.52 34.85, -16.82 33, -16.83 31.89 C-16.83 30.78, -15.83 29.93, -15.16 28.6 C-14.49 27.28, -13.54 25.46, -12.8 23.92 C-12.06 22.38, -11.32 21.02, -10.71 19.36 C-10.11 17.7, -10.1 15.84, -9.17 13.98 C-8.24 12.13, -6.56 10.03, -5.14 8.23 C-3.73 6.43, -1.53 4.55, -0.7 3.2 C0.14 1.85, -0.24 0.65, -0.15 0.15 M0 0 C-0.09 -2.32, -0.54 -10.45, -0.54 -13.92 C-0.54 -17.4, -0.39 -18.87, 0 -20.85 C0.39 -22.83, 1.08 -24.49, 1.82 -25.8 C2.55 -27.11, 3.3 -27.85, 4.41 -28.7 C5.52 -29.55, 6.97 -30.49, 8.47 -30.9 C9.97 -31.32, 11.75 -31.32, 13.42 -31.21 C15.1 -31.1, 17.04 -30.77, 18.53 -30.25 C20.01 -29.72, 21.25 -28.94, 22.32 -28.08 C23.38 -27.22, 24.1 -26.24, 24.91 -25.06 C25.72 -23.88, 26.59 -22.59, 27.15 -21 C27.72 -19.42, 28.12 -17.33, 28.31 -15.55 C28.51 -13.77, 28.26 -12.05, 28.31 -10.33 C28.36 -8.61, 28.36 -6.72, 28.62 -5.22 C28.88 -3.72, 29.12 -2.9, 29.86 -1.32 C30.6 0.27, 31.74 2.4, 33.07 4.29 C34.4 6.19, 36.51 8.35, 37.83 10.06 C39.14 11.76, 40.06 12.87, 40.96 14.5 C41.86 16.14, 42.53 17.8, 43.2 19.84 C43.88 21.89, 44.67 25.08, 45.02 26.77 C45.38 28.45, 45.33 28.72, 45.33 29.94 C45.33 31.16, 45.27 32.86, 45.02 34.08 C44.78 35.29, 44.4 36.24, 43.86 37.22 C43.32 38.19, 42.68 39.12, 41.77 39.93 C40.86 40.73, 39.41 41.67, 38.41 42.05 C37.41 42.43, 36.69 42.38, 35.78 42.21 C34.86 42.03, 33.51 41.75, 32.92 41.01 C32.32 40.27, 32.28 38.57, 32.22 37.76 C32.16 36.95, 32.78 36.44, 32.57 36.14 C32.35 35.83, 31.05 36.7, 30.94 35.94 C30.84 35.19, 31.78 33.14, 31.95 31.61 C32.12 30.08, 32.14 28.6, 31.95 26.78 C31.76 24.95, 31.38 22.58, 30.83 20.66 C30.27 18.75, 29.38 16.6, 28.62 15.29 C27.86 13.98, 26.72 13.7, 26.26 12.81 C25.81 11.92, 26.1 10.9, 25.88 9.95 C25.66 9, 25.48 8.31, 24.95 7.09 C24.42 5.87, 23.45 4.18, 22.7 2.64 C21.96 1.1, 20.8 -0.87, 20.5 -2.18 C20.2 -3.48, 21.08 -4.41, 20.89 -5.19 C20.69 -5.98, 20.25 -6.31, 19.34 -6.89 C18.43 -7.48, 16.54 -8.25, 15.43 -8.71 C14.32 -9.17, 13.76 -9.46, 12.69 -9.64 C11.62 -9.82, 10.28 -10.14, 9.01 -9.8 C7.75 -9.45, 6.28 -8.49, 5.11 -7.59 C3.93 -6.69, 2.41 -5.64, 1.97 -4.42 C1.53 -3.2, 2.37 -1.32, 2.48 -0.28 C2.58 0.76, 2.87 0.82, 2.59 1.85 C2.31 2.87, 1.55 4.54, 0.81 5.87 C0.08 7.2, -1.27 8.42, -1.82 9.81 C-2.37 11.21, -1.91 12.68, -2.48 14.22 C-3.04 15.76, -4.44 17.4, -5.22 19.06 C-6.01 20.72, -6.65 22.25, -7.19 24.16 C-7.74 26.08, -8.26 28.84, -8.47 30.54 C-8.68 32.23, -9.23 32.95, -8.47 34.33 C-7.71 35.71, -5.58 37.31, -3.91 38.81 C-2.24 40.32, 0.37 42.13, 1.55 43.34 C2.72 44.55, 3.02 45.24, 3.13 46.09 C3.25 46.94, 2.91 47.92, 2.24 48.45 C1.57 48.97, 0.2 50.13, -0.89 49.22 C-1.98 48.31, -3.22 44.77, -4.29 42.99 C-5.36 41.21, -6.39 39.74, -7.31 38.54 C-8.23 37.34, -8.96 36.56, -9.79 35.8 C-10.61 35.04, -11.48 34.22, -12.26 33.98 C-13.04 33.73, -13.99 34.11, -14.47 34.33 C-14.94 34.54, -14.73 35.66, -15.12 35.26 C-15.52 34.85, -16.82 33, -16.83 31.89 C-16.83 30.78, -15.83 29.93, -15.16 28.6 C-14.49 27.28, -13.54 25.46, -12.8 23.92 C-12.06 22.38, -11.32 21.02, -10.71 19.36 C-10.11 17.7, -10.1 15.84, -9.17 13.98 C-8.24 12.13, -6.56 10.03, -5.14 8.23 C-3.73 6.43, -1.53 4.55, -0.7 3.2 C0.14 1.85, -0.24 0.65, -0.15 0.15" stroke="#000" stroke-width="1" fill="none"></path></g></g><mask></mask><g stroke-linecap="round"><g transform="translate(161.1886090284479 337.96746215843234) rotate(0 9.853627249329975 -0.43402751905694004)" fill-rule="evenodd"><path d="M0.75 -2 C0.75 -2, 0.75 -2, 0.75 -2 M0.75 -2 C0.75 -2, 0.75 -2, 0.75 -2 M2.46 2.14 C5.47 -1.32, 8.48 -4.78, 10.33 -6.92 M2.46 2.14 C5.06 -0.85, 7.66 -3.84, 10.33 -6.92 M5.48 4.76 C7.44 2.5, 9.41 0.24, 14.01 -5.05 M5.48 4.76 C7.58 2.35, 9.68 -0.07, 14.01 -5.05 M9.15 6.63 C10.88 4.65, 12.6 2.67, 17.68 -3.18 M9.15 6.63 C11.38 4.07, 13.61 1.5, 17.68 -3.18 M5.59 5.76 C5.59 5.76, 5.59 5.76, 5.59 5.76 M5.59 5.76 C5.59 5.76, 5.59 5.76, 5.59 5.76 M11.24 5.37 C7.63 2.23, 4.02 -0.91, 1.42 -3.16 M11.24 5.37 C8.02 2.57, 4.8 -0.23, 1.42 -3.16 M14.61 3 C11.44 0.24, 8.26 -2.52, 4.05 -6.18 M14.61 3 C11.99 0.72, 9.37 -1.56, 4.05 -6.18 M18.75 1.3 C15.47 -1.55, 12.2 -4.39, 8.94 -7.23 M18.75 1.3 C15.74 -1.32, 12.73 -3.93, 8.94 -7.23" stroke="#f5c021" stroke-width="0.5" fill="none"></path><path d="M0 0 C0.07 -0.27, 0.08 -1.05, 0.45 -1.64 C0.81 -2.23, 1.6 -2.89, 2.21 -3.54 C2.82 -4.19, 3.32 -4.98, 4.11 -5.54 C4.9 -6.09, 5.99 -6.58, 6.94 -6.87 C7.89 -7.16, 8.88 -7.43, 9.81 -7.27 C10.73 -7.12, 11.6 -6.37, 12.48 -5.94 C13.36 -5.5, 14.2 -5.01, 15.11 -4.67 C16.02 -4.33, 17.18 -4.21, 17.95 -3.89 C18.71 -3.58, 19.55 -3.62, 19.71 -2.77 C19.86 -1.91, 19.48 0.33, 18.86 1.24 C18.24 2.15, 16.86 2.19, 16 2.7 C15.14 3.21, 14.55 3.78, 13.7 4.29 C12.86 4.81, 11.83 5.42, 10.93 5.77 C10.03 6.12, 9.19 6.4, 8.31 6.4 C7.42 6.41, 6.42 6.25, 5.63 5.79 C4.84 5.34, 4.19 4.39, 3.57 3.66 C2.94 2.93, 2.18 1.8, 1.9 1.43 M0 0 C0.07 -0.27, 0.08 -1.05, 0.45 -1.64 C0.81 -2.23, 1.6 -2.89, 2.21 -3.54 C2.82 -4.19, 3.32 -4.98, 4.11 -5.54 C4.9 -6.09, 5.99 -6.58, 6.94 -6.87 C7.89 -7.16, 8.88 -7.43, 9.81 -7.27 C10.73 -7.12, 11.6 -6.37, 12.48 -5.94 C13.36 -5.5, 14.2 -5.01, 15.11 -4.67 C16.02 -4.33, 17.18 -4.21, 17.95 -3.89 C18.71 -3.58, 19.55 -3.62, 19.71 -2.77 C19.86 -1.91, 19.48 0.33, 18.86 1.24 C18.24 2.15, 16.86 2.19, 16 2.7 C15.14 3.21, 14.55 3.78, 13.7 4.29 C12.86 4.81, 11.83 5.42, 10.93 5.77 C10.03 6.12, 9.19 6.4, 8.31 6.4 C7.42 6.41, 6.42 6.25, 5.63 5.79 C4.84 5.34, 4.19 4.39, 3.57 3.66 C2.94 2.93, 2.18 1.8, 1.9 1.43" stroke="#f5c021" stroke-width="1" fill="none"></path></g></g><mask></mask><g stroke-linecap="round"><g transform="translate(162.48677274173406 333.33693185485174) rotate(0 1.6355700658887145 -5.039594316836599)" fill-rule="evenodd"><path d="M0 0 C-0.14 -0.16, -0.57 -0.3, -0.84 -0.96 C-1.1 -1.63, -1.45 -3.02, -1.59 -3.99 C-1.73 -4.95, -1.81 -5.88, -1.68 -6.77 C-1.54 -7.65, -1.35 -8.74, -0.78 -9.3 C-0.2 -9.86, 1 -10.33, 1.78 -10.14 C2.56 -9.95, 3.38 -8.91, 3.9 -8.16 C4.43 -7.4, 4.95 -6.47, 4.95 -5.6 C4.94 -4.74, 4.35 -3.62, 3.86 -2.96 C3.37 -2.31, 2.6 -2.16, 2 -1.66 C1.4 -1.15, 0.56 -0.22, 0.27 0.06" stroke="none" stroke-width="0" fill="#fff" fill-rule="evenodd"></path><path d="M0 0 C-0.14 -0.16, -0.57 -0.3, -0.84 -0.96 C-1.1 -1.63, -1.45 -3.02, -1.59 -3.99 C-1.73 -4.95, -1.81 -5.88, -1.68 -6.77 C-1.54 -7.65, -1.35 -8.74, -0.78 -9.3 C-0.2 -9.86, 1 -10.33, 1.78 -10.14 C2.56 -9.95, 3.38 -8.91, 3.9 -8.16 C4.43 -7.4, 4.95 -6.47, 4.95 -5.6 C4.94 -4.74, 4.35 -3.62, 3.86 -2.96 C3.37 -2.31, 2.6 -2.16, 2 -1.66 C1.4 -1.15, 0.56 -0.22, 0.27 0.06 M0 0 C-0.14 -0.16, -0.57 -0.3, -0.84 -0.96 C-1.1 -1.63, -1.45 -3.02, -1.59 -3.99 C-1.73 -4.95, -1.81 -5.88, -1.68 -6.77 C-1.54 -7.65, -1.35 -8.74, -0.78 -9.3 C-0.2 -9.86, 1 -10.33, 1.78 -10.14 C2.56 -9.95, 3.38 -8.91, 3.9 -8.16 C4.43 -7.4, 4.95 -6.47, 4.95 -5.6 C4.94 -4.74, 4.35 -3.62, 3.86 -2.96 C3.37 -2.31, 2.6 -2.16, 2 -1.66 C1.4 -1.15, 0.56 -0.22, 0.27 0.06" stroke="#fff" stroke-width="1" fill="none"></path></g></g><mask></mask><g stroke-linecap="round"><g transform="translate(173.86686399766677 331.63914320139395) rotate(0 3.5447796922107955 -2.807200139982058)" fill-rule="evenodd"><path d="M0 0 C-0.12 -0.3, -0.56 -1.2, -0.7 -1.78 C-0.85 -2.37, -0.92 -2.92, -0.88 -3.5 C-0.84 -4.08, -0.73 -4.73, -0.44 -5.28 C-0.15 -5.84, 0.28 -6.41, 0.84 -6.85 C1.39 -7.28, 2.18 -7.83, 2.91 -7.9 C3.64 -7.98, 4.5 -7.73, 5.22 -7.31 C5.94 -6.89, 6.79 -6.03, 7.22 -5.37 C7.65 -4.72, 7.69 -4.06, 7.82 -3.37 C7.94 -2.68, 8.03 -1.86, 7.97 -1.21 C7.91 -0.57, 7.75 -0.08, 7.46 0.51 C7.18 1.09, 6.92 2.09, 6.27 2.29 C5.63 2.49, 4.61 2.07, 3.59 1.7 C2.57 1.32, 0.74 0.34, 0.18 0.07" stroke="none" stroke-width="0" fill="#fff" fill-rule="evenodd"></path><path d="M0 0 C-0.12 -0.3, -0.56 -1.2, -0.7 -1.78 C-0.85 -2.37, -0.92 -2.92, -0.88 -3.5 C-0.84 -4.08, -0.73 -4.73, -0.44 -5.28 C-0.15 -5.84, 0.28 -6.41, 0.84 -6.85 C1.39 -7.28, 2.18 -7.83, 2.91 -7.9 C3.64 -7.98, 4.5 -7.73, 5.22 -7.31 C5.94 -6.89, 6.79 -6.03, 7.22 -5.37 C7.65 -4.72, 7.69 -4.06, 7.82 -3.37 C7.94 -2.68, 8.03 -1.86, 7.97 -1.21 C7.91 -0.57, 7.75 -0.08, 7.46 0.51 C7.18 1.09, 6.92 2.09, 6.27 2.29 C5.63 2.49, 4.61 2.07, 3.59 1.7 C2.57 1.32, 0.74 0.34, 0.18 0.07 M0 0 C-0.12 -0.3, -0.56 -1.2, -0.7 -1.78 C-0.85 -2.37, -0.92 -2.92, -0.88 -3.5 C-0.84 -4.08, -0.73 -4.73, -0.44 -5.28 C-0.15 -5.84, 0.28 -6.41, 0.84 -6.85 C1.39 -7.28, 2.18 -7.83, 2.91 -7.9 C3.64 -7.98, 4.5 -7.73, 5.22 -7.31 C5.94 -6.89, 6.79 -6.03, 7.22 -5.37 C7.65 -4.72, 7.69 -4.06, 7.82 -3.37 C7.94 -2.68, 8.03 -1.86, 7.97 -1.21 C7.91 -0.57, 7.75 -0.08, 7.46 0.51 C7.18 1.09, 6.92 2.09, 6.27 2.29 C5.63 2.49, 4.61 2.07, 3.59 1.7 C2.57 1.32, 0.74 0.34, 0.18 0.07" stroke="#fff" stroke-width="1" fill="none"></path></g></g><mask></mask><g stroke-linecap="round"><g transform="translate(134.8466602519129 389.363698338209) rotate(0 13.172827667676074 0.8619263082796351)" fill-rule="evenodd"><path d="M-0.46 -7.02 C-0.46 -7.02, -0.46 -7.02, -0.46 -7.02 M-0.46 -7.02 C-0.46 -7.02, -0.46 -7.02, -0.46 -7.02 M-0.06 -1.38 C1.79 -3.5, 3.64 -5.63, 5.84 -8.17 M-0.06 -1.38 C2.06 -3.82, 4.19 -6.27, 5.84 -8.17 M0.33 4.27 C4.04 0, 7.74 -4.26, 14.77 -12.34 M0.33 4.27 C3.27 0.88, 6.21 -2.5, 14.77 -12.34 M0.73 9.91 C6.83 2.89, 12.92 -4.12, 17.13 -8.96 M0.73 9.91 C7.24 2.42, 13.74 -5.06, 17.13 -8.96 M5.06 11.02 C9.74 5.64, 14.41 0.27, 19.49 -5.58 M5.06 11.02 C8.53 7.03, 12 3.04, 19.49 -5.58 M8.73 12.89 C13.76 7.11, 18.79 1.33, 21.86 -2.2 M8.73 12.89 C13.4 7.52, 18.07 2.15, 21.86 -2.2 M13.07 14.01 C17.24 9.21, 21.41 4.41, 24.22 1.18 M13.07 14.01 C16.8 9.71, 20.53 5.42, 24.22 1.18 M17.4 15.12 C19.47 12.73, 21.55 10.34, 26.58 4.56 M17.4 15.12 C20.97 11.01, 24.55 6.9, 26.58 4.56 M21.73 16.24 C23.85 13.8, 25.97 11.35, 28.29 8.69 M21.73 16.24 C23.05 14.72, 24.37 13.2, 28.29 8.69 M-0.49 9.71 C-0.49 9.71, -0.49 9.71, -0.49 9.71 M-0.49 9.71 C-0.49 9.71, -0.49 9.71, -0.49 9.71 M8.93 12.59 C5.63 9.72, 2.33 6.85, -0.13 4.72 M8.93 12.59 C6.4 10.39, 3.87 8.19, -0.13 4.72 M17.59 14.82 C12.39 10.3, 7.19 5.78, 0.23 -0.27 M17.59 14.82 C12.19 10.12, 6.79 5.43, 0.23 -0.27 M24.74 15.74 C15.69 7.87, 6.64 0, -0.16 -5.91 M24.74 15.74 C16.45 8.52, 8.15 1.31, -0.16 -5.91 M27.37 12.72 C20.8 7.01, 14.23 1.3, 2.46 -8.93 M27.37 12.72 C19.18 5.6, 10.99 -1.52, 2.46 -8.93 M28.48 8.39 C22.94 3.57, 17.39 -1.26, 7.35 -9.98 M28.48 8.39 C23.15 3.75, 17.81 -0.89, 7.35 -9.98 M24.32 -0.54 C19.63 -4.61, 14.94 -8.68, 9.98 -13 M24.32 -0.54 C20.32 -4.01, 16.33 -7.48, 9.98 -13" stroke="#f5c021" stroke-width="0.5" fill="none"></path><path d="M0 0 C-0.04 -0.59, -0.16 -2.34, -0.23 -3.51 C-0.3 -4.69, -0.89 -6.14, -0.42 -7.06 C0.05 -7.97, 1.6 -8.74, 2.6 -9.01 C3.6 -9.28, 4.61 -8.45, 5.56 -8.68 C6.52 -8.92, 7.59 -9.75, 8.33 -10.44 C9.06 -11.13, 9.33 -12.24, 9.95 -12.85 C10.58 -13.45, 11.22 -14.17, 12.07 -14.08 C12.91 -14, 13.73 -13.74, 15.03 -12.33 C16.32 -10.92, 18.2 -8.04, 19.84 -5.63 C21.48 -3.21, 23.47 0.13, 24.88 2.18 C26.3 4.23, 27.76 5.5, 28.33 6.67 C28.9 7.84, 28.35 8.29, 28.33 9.2 C28.31 10.12, 28.48 11.34, 28.2 12.16 C27.92 12.99, 27.31 13.56, 26.67 14.15 C26.03 14.73, 25.4 15.4, 24.36 15.68 C23.32 15.95, 21.78 16.06, 20.43 15.81 C19.08 15.55, 18.13 14.68, 16.26 14.15 C14.4 13.62, 11.49 13.18, 9.24 12.62 C6.98 12.06, 4.38 11.28, 2.73 10.77 C1.08 10.26, 0.14 10, -0.65 9.56 C-1.44 9.12, -1.87 8.7, -1.98 8.13 C-2.1 7.56, -1.64 6.92, -1.33 6.15 C-1.02 5.38, -0.38 4.48, -0.13 3.51 C0.12 2.54, 0.14 0.86, 0.2 0.33 M0 0 C-0.04 -0.59, -0.16 -2.34, -0.23 -3.51 C-0.3 -4.69, -0.89 -6.14, -0.42 -7.06 C0.05 -7.97, 1.6 -8.74, 2.6 -9.01 C3.6 -9.28, 4.61 -8.45, 5.56 -8.68 C6.52 -8.92, 7.59 -9.75, 8.33 -10.44 C9.06 -11.13, 9.33 -12.24, 9.95 -12.85 C10.58 -13.45, 11.22 -14.17, 12.07 -14.08 C12.91 -14, 13.73 -13.74, 15.03 -12.33 C16.32 -10.92, 18.2 -8.04, 19.84 -5.63 C21.48 -3.21, 23.47 0.13, 24.88 2.18 C26.3 4.23, 27.76 5.5, 28.33 6.67 C28.9 7.84, 28.35 8.29, 28.33 9.2 C28.31 10.12, 28.48 11.34, 28.2 12.16 C27.92 12.99, 27.31 13.56, 26.67 14.15 C26.03 14.73, 25.4 15.4, 24.36 15.68 C23.32 15.95, 21.78 16.06, 20.43 15.81 C19.08 15.55, 18.13 14.68, 16.26 14.15 C14.4 13.62, 11.49 13.18, 9.24 12.62 C6.98 12.06, 4.38 11.28, 2.73 10.77 C1.08 10.26, 0.14 10, -0.65 9.56 C-1.44 9.12, -1.87 8.7, -1.98 8.13 C-2.1 7.56, -1.64 6.92, -1.33 6.15 C-1.02 5.38, -0.38 4.48, -0.13 3.51 C0.12 2.54, 0.14 0.86, 0.2 0.33" stroke="#f5c021" stroke-width="1" fill="none"></path></g></g><mask></mask><g stroke-linecap="round"><g transform="translate(186.2879846150845 379.86712673192744) rotate(0 11.904331397937085 12.31090247607068)" fill-rule="evenodd"><path d="M0.72 -2.03 C0.72 -2.03, 0.72 -2.03, 0.72 -2.03 M0.72 -2.03 C0.72 -2.03, 0.72 -2.03, 0.72 -2.03 M0.45 4.37 C1.67 2.98, 2.88 1.59, 5.7 -1.67 M0.45 4.37 C1.75 2.89, 3.04 1.4, 5.7 -1.67 M0.19 10.77 C2.31 8.33, 4.43 5.89, 10.69 -1.31 M0.19 10.77 C2.94 7.61, 5.68 4.45, 10.69 -1.31 M-1.38 18.68 C4.31 12.13, 10.01 5.58, 15.68 -0.95 M-1.38 18.68 C4.69 11.7, 10.75 4.72, 15.68 -0.95 M-0.33 23.56 C6.67 15.52, 13.66 7.47, 18.7 1.68 M-0.33 23.56 C5.91 16.39, 12.15 9.21, 18.7 1.68 M2.69 26.19 C8.01 20.06, 13.34 13.94, 20.4 5.81 M2.69 26.19 C7.09 21.13, 11.48 16.07, 20.4 5.81 M7.68 26.55 C12.93 20.51, 18.18 14.46, 23.42 8.44 M7.68 26.55 C12.5 21, 17.33 15.44, 23.42 8.44 M21.19 17.1 C22.22 15.92, 23.24 14.74, 25.78 11.81 M21.19 17.1 C22.4 15.71, 23.61 14.31, 25.78 11.81 M0.45 25.4 C0.45 25.4, 0.45 25.4, 0.45 25.4 M0.45 25.4 C0.45 25.4, 0.45 25.4, 0.45 25.4 M6.85 25.66 C4.43 23.55, 2.01 21.45, -2.21 17.79 M6.85 25.66 C4.44 23.57, 2.04 21.48, -2.21 17.79 M10.98 23.95 C7.87 21.25, 4.75 18.54, -1.1 13.45 M10.98 23.95 C6.96 20.46, 2.94 16.96, -1.1 13.45 M13.6 20.93 C9.86 17.68, 6.12 14.43, 0.02 9.12 M13.6 20.93 C10.3 18.06, 6.99 15.18, 0.02 9.12 M17.74 19.23 C12.54 14.7, 7.33 10.18, 0.38 4.14 M17.74 19.23 C11.5 13.8, 5.26 8.38, 0.38 4.14 M21.12 16.86 C13.69 10.4, 6.26 3.95, 0.74 -0.85 M21.12 16.86 C14.75 11.32, 8.37 5.79, 0.74 -0.85 M24.5 14.5 C18.67 9.43, 12.84 4.36, 5.63 -1.9 M24.5 14.5 C19.67 10.3, 14.84 6.11, 5.63 -1.9 M18.82 4.26 C16.6 2.34, 14.39 0.41, 12.03 -1.64 M18.82 4.26 C16.7 2.42, 14.58 0.58, 12.03 -1.64" stroke="#f5c021" stroke-width="0.5" fill="none"></path><path d="M0 0 C0.11 -0.33, -0.17 -1.7, 0.65 -1.95 C1.47 -2.21, 2.29 -1.71, 4.94 -1.53 C7.59 -1.35, 14.22 -1.33, 16.56 -0.88 C18.89 -0.42, 18.54 0.28, 18.96 1.2 C19.39 2.13, 18.56 3.5, 19.09 4.65 C19.62 5.81, 21.14 7.15, 22.15 8.13 C23.16 9.11, 24.55 9.7, 25.14 10.54 C25.73 11.38, 25.99 12.33, 25.7 13.17 C25.4 14.02, 24.49 14.8, 23.39 15.61 C22.29 16.43, 20.41 17.32, 19.09 18.05 C17.78 18.78, 16.58 19.26, 15.48 20 C14.39 20.75, 13.62 21.54, 12.52 22.51 C11.43 23.47, 10.25 25.12, 8.91 25.79 C7.58 26.47, 5.93 26.64, 4.52 26.57 C3.11 26.51, 1.46 26.02, 0.46 25.4 C-0.55 24.78, -1.14 24.07, -1.53 22.87 C-1.92 21.66, -2.04 19.8, -1.89 18.15 C-1.73 16.5, -0.92 14.92, -0.59 12.98 C-0.25 11.04, 0.02 8.63, 0.1 6.51 C0.18 4.38, -0.07 1.27, -0.1 0.23 M0 0 C0.11 -0.33, -0.17 -1.7, 0.65 -1.95 C1.47 -2.21, 2.29 -1.71, 4.94 -1.53 C7.59 -1.35, 14.22 -1.33, 16.56 -0.88 C18.89 -0.42, 18.54 0.28, 18.96 1.2 C19.39 2.13, 18.56 3.5, 19.09 4.65 C19.62 5.81, 21.14 7.15, 22.15 8.13 C23.16 9.11, 24.55 9.7, 25.14 10.54 C25.73 11.38, 25.99 12.33, 25.7 13.17 C25.4 14.02, 24.49 14.8, 23.39 15.61 C22.29 16.43, 20.41 17.32, 19.09 18.05 C17.78 18.78, 16.58 19.26, 15.48 20 C14.39 20.75, 13.62 21.54, 12.52 22.51 C11.43 23.47, 10.25 25.12, 8.91 25.79 C7.58 26.47, 5.93 26.64, 4.52 26.57 C3.11 26.51, 1.46 26.02, 0.46 25.4 C-0.55 24.78, -1.14 24.07, -1.53 22.87 C-1.92 21.66, -2.04 19.8, -1.89 18.15 C-1.73 16.5, -0.92 14.92, -0.59 12.98 C-0.25 11.04, 0.02 8.63, 0.1 6.51 C0.18 4.38, -0.07 1.27, -0.1 0.23" stroke="#f5c021" stroke-width="1" fill="none"></path></g></g><mask></mask><g stroke-linecap="round"><g transform="translate(161.2399469866059 394.08650901380827) rotate(0 12.768786378043387 1.0494864794343357)" fill-rule="evenodd"><path d="M0 0 C0 0, 0 0, 0 0 M0 0 C0 0, 0 0, 0 0 M1.71 4.13 C2.13 3.65, 2.55 3.17, 3.67 1.87 M1.71 4.13 C2.49 3.23, 3.28 2.33, 3.67 1.87 M4.07 7.51 C5.36 6.03, 6.65 4.55, 8.01 2.98 M4.07 7.51 C5.24 6.17, 6.4 4.83, 8.01 2.98 M9.71 7.12 C11.12 5.5, 12.52 3.88, 13.65 2.59 M9.71 7.12 C11.05 5.58, 12.38 4.05, 13.65 2.59 M14.7 7.48 C17.35 4.43, 19.99 1.39, 25.85 -5.35 M14.7 7.48 C17.6 4.14, 20.5 0.8, 25.85 -5.35 M19.69 7.84 C21.09 6.22, 22.5 4.6, 24.28 2.56 M19.69 7.84 C21.12 6.19, 22.55 4.54, 24.28 2.56 M1.93 6.92 C1.93 6.92, 1.93 6.92, 1.93 6.92 M1.93 6.92 C1.93 6.92, 1.93 6.92, 1.93 6.92 M7.57 6.53 C5.39 4.63, 3.21 2.74, 0.03 -0.03 M7.57 6.53 C5.17 4.44, 2.77 2.35, 0.03 -0.03 M13.22 6.14 C11.87 4.97, 10.53 3.8, 7.93 1.54 M13.22 6.14 C12 5.08, 10.78 4.02, 7.93 1.54 M20.37 7.05 C18.94 5.81, 17.51 4.57, 13.58 1.15 M20.37 7.05 C18.42 5.36, 16.47 3.67, 13.58 1.15 M24.5 5.35 C22.27 3.4, 20.04 1.46, 18.47 0.1 M24.5 5.35 C22.75 3.82, 20.99 2.29, 18.47 0.1 M24.11 -0.3 C23.35 -0.95, 22.6 -1.61, 21.09 -2.92 M24.11 -0.3 C23.3 -1, 22.49 -1.7, 21.09 -2.92 M25.22 -4.63 C25.06 -4.77, 24.89 -4.92, 24.47 -5.28 M25.22 -4.63 C24.99 -4.83, 24.75 -5.04, 24.47 -5.28" stroke="#000" stroke-width="0.5" fill="none"></path><path d="M0 0 C0.68 0.3, 2.56 1.4, 4.1 1.81 C5.64 2.23, 7.72 2.44, 9.25 2.48 C10.79 2.52, 11.85 2.44, 13.29 2.04 C14.74 1.63, 16.63 0.74, 17.9 0.06 C19.18 -0.61, 19.65 -0.99, 20.93 -2.04 C22.2 -3.08, 24.88 -6.33, 25.54 -6.23 C26.2 -6.13, 25.18 -2.83, 24.9 -1.43 C24.62 -0.04, 24.03 1.02, 23.85 2.13 C23.68 3.24, 23.83 4.18, 23.85 5.22 C23.88 6.25, 24.36 7.92, 24.01 8.33 C23.67 8.75, 23.13 7.96, 21.78 7.7 C20.44 7.44, 17.84 6.99, 15.96 6.77 C14.09 6.56, 12.24 6.48, 10.53 6.42 C8.81 6.37, 7.12 6.34, 5.69 6.42 C4.26 6.51, 2.59 7.39, 1.94 6.93 C1.29 6.47, 1.88 4.46, 1.81 3.66 C1.74 2.86, 1.83 2.69, 1.53 2.13 C1.22 1.57, 0.25 0.62, 0 0.32 M0 0 C0.68 0.3, 2.56 1.4, 4.1 1.81 C5.64 2.23, 7.72 2.44, 9.25 2.48 C10.79 2.52, 11.85 2.44, 13.29 2.04 C14.74 1.63, 16.63 0.74, 17.9 0.06 C19.18 -0.61, 19.65 -0.99, 20.93 -2.04 C22.2 -3.08, 24.88 -6.33, 25.54 -6.23 C26.2 -6.13, 25.18 -2.83, 24.9 -1.43 C24.62 -0.04, 24.03 1.02, 23.85 2.13 C23.68 3.24, 23.83 4.18, 23.85 5.22 C23.88 6.25, 24.36 7.92, 24.01 8.33 C23.67 8.75, 23.13 7.96, 21.78 7.7 C20.44 7.44, 17.84 6.99, 15.96 6.77 C14.09 6.56, 12.24 6.48, 10.53 6.42 C8.81 6.37, 7.12 6.34, 5.69 6.42 C4.26 6.51, 2.59 7.39, 1.94 6.93 C1.29 6.47, 1.88 4.46, 1.81 3.66 C1.74 2.86, 1.83 2.69, 1.53 2.13 C1.22 1.57, 0.25 0.62, 0 0.32" stroke="#000" stroke-width="1" fill="none"></path></g></g><mask></mask><g stroke-linecap="round" transform="translate(161.75314747941684 327.23034818112194) rotate(0 1.8485315402783726 2.817521234519802)"><path d="M0.7 0.61 C0.7 0.61, 0.7 0.61, 0.7 0.61 M0.7 0.61 C0.7 0.61, 0.7 0.61, 0.7 0.61 M1.75 5.5 C2.33 4.84, 2.91 4.17, 3.72 3.23 M1.75 5.5 C2.17 5.02, 2.58 4.55, 3.72 3.23 M0.81 5.16 C0.81 5.16, 0.81 5.16, 0.81 5.16 M0.81 5.16 C0.81 5.16, 0.81 5.16, 0.81 5.16 M4.19 2.8 C3.4 2.11, 2.61 1.42, 1.17 0.17 M4.19 2.8 C3.38 2.09, 2.56 1.38, 1.17 0.17" stroke="#000" stroke-width="0.5" fill="none"></path><path d="M3.7 2.82 C3.7 2.98, 3.69 3.15, 3.67 3.31 C3.65 3.47, 3.62 3.63, 3.59 3.78 C3.55 3.93, 3.5 4.09, 3.45 4.23 C3.4 4.37, 3.33 4.5, 3.26 4.63 C3.2 4.75, 3.12 4.87, 3.04 4.98 C2.95 5.08, 2.87 5.18, 2.77 5.26 C2.68 5.34, 2.58 5.41, 2.48 5.47 C2.38 5.52, 2.27 5.56, 2.17 5.59 C2.06 5.62, 1.96 5.64, 1.85 5.64 C1.74 5.64, 1.63 5.62, 1.53 5.59 C1.42 5.56, 1.32 5.52, 1.22 5.47 C1.12 5.41, 1.02 5.34, 0.92 5.26 C0.83 5.18, 0.74 5.08, 0.66 4.98 C0.58 4.87, 0.5 4.75, 0.43 4.63 C0.36 4.5, 0.3 4.37, 0.25 4.23 C0.19 4.09, 0.15 3.93, 0.11 3.78 C0.07 3.63, 0.05 3.47, 0.03 3.31 C0.01 3.15, 0 2.98, 0 2.82 C0 2.65, 0.01 2.49, 0.03 2.33 C0.05 2.17, 0.07 2.01, 0.11 1.85 C0.15 1.7, 0.19 1.55, 0.25 1.41 C0.3 1.27, 0.36 1.13, 0.43 1.01 C0.5 0.88, 0.58 0.76, 0.66 0.66 C0.74 0.55, 0.83 0.46, 0.92 0.38 C1.02 0.3, 1.12 0.23, 1.22 0.17 C1.32 0.11, 1.42 0.07, 1.53 0.04 C1.63 0.01, 1.74 0, 1.85 0 C1.96 0, 2.06 0.01, 2.17 0.04 C2.27 0.07, 2.38 0.11, 2.48 0.17 C2.58 0.23, 2.68 0.3, 2.77 0.38 C2.87 0.46, 2.95 0.55, 3.04 0.66 C3.12 0.76, 3.2 0.88, 3.26 1.01 C3.33 1.13, 3.4 1.27, 3.45 1.41 C3.5 1.55, 3.55 1.7, 3.59 1.85 C3.62 2.01, 3.65 2.17, 3.67 2.33 C3.69 2.49, 3.69 2.74, 3.7 2.82 C3.7 2.9, 3.7 2.74, 3.7 2.82" stroke="#000" stroke-width="1" fill="none"></path></g><g stroke-linecap="round" transform="translate(173.17230807003216 327.02164472425613) rotate(0 2.5044660492214916 2.9367819612714356)"><path d="M0.85 0.74 C0.85 0.74, 0.85 0.74, 0.85 0.74 M0.85 0.74 C0.85 0.74, 0.85 0.74, 0.85 0.74 M1.9 5.63 C3.14 4.2, 4.38 2.77, 5.18 1.85 M1.9 5.63 C2.79 4.61, 3.67 3.59, 5.18 1.85 M0.84 5.14 C0.84 5.14, 0.84 5.14, 0.84 5.14 M0.84 5.14 C0.84 5.14, 0.84 5.14, 0.84 5.14 M4.97 3.43 C3.72 2.35, 2.48 1.26, 1.2 0.15 M4.97 3.43 C4.08 2.66, 3.2 1.89, 1.2 0.15" stroke="#000" stroke-width="0.5" fill="none"></path><path d="M5.01 2.94 C5.01 3.11, 5 3.28, 4.97 3.45 C4.95 3.61, 4.91 3.78, 4.86 3.94 C4.81 4.1, 4.75 4.26, 4.67 4.41 C4.6 4.55, 4.52 4.69, 4.42 4.82 C4.33 4.95, 4.23 5.08, 4.11 5.19 C4 5.3, 3.88 5.4, 3.76 5.48 C3.63 5.57, 3.5 5.64, 3.36 5.7 C3.22 5.75, 3.08 5.8, 2.94 5.83 C2.8 5.86, 2.65 5.87, 2.5 5.87 C2.36 5.87, 2.21 5.86, 2.07 5.83 C1.93 5.8, 1.78 5.75, 1.65 5.7 C1.51 5.64, 1.38 5.57, 1.25 5.48 C1.13 5.4, 1.01 5.3, 0.89 5.19 C0.78 5.08, 0.68 4.95, 0.59 4.82 C0.49 4.69, 0.41 4.55, 0.34 4.41 C0.26 4.26, 0.2 4.1, 0.15 3.94 C0.1 3.78, 0.06 3.61, 0.04 3.45 C0.01 3.28, 0 3.11, 0 2.94 C0 2.77, 0.01 2.59, 0.04 2.43 C0.06 2.26, 0.1 2.09, 0.15 1.93 C0.2 1.77, 0.26 1.62, 0.34 1.47 C0.41 1.32, 0.49 1.18, 0.59 1.05 C0.68 0.92, 0.78 0.8, 0.89 0.69 C1.01 0.58, 1.13 0.48, 1.25 0.39 C1.38 0.31, 1.51 0.24, 1.65 0.18 C1.78 0.12, 1.93 0.07, 2.07 0.04 C2.21 0.02, 2.36 0, 2.5 0 C2.65 0, 2.8 0.02, 2.94 0.04 C3.08 0.07, 3.22 0.12, 3.36 0.18 C3.5 0.24, 3.63 0.31, 3.76 0.39 C3.88 0.48, 4 0.58, 4.11 0.69 C4.23 0.8, 4.33 0.92, 4.42 1.05 C4.52 1.18, 4.6 1.32, 4.67 1.47 C4.75 1.62, 4.81 1.77, 4.86 1.93 C4.91 2.09, 4.95 2.26, 4.97 2.43 C5 2.59, 5 2.85, 5.01 2.94 C5.02 3.02, 5.02 2.85, 5.01 2.94" stroke="#000" stroke-width="1" fill="none"></path></g></svg>